<svg width="368" height="259" xmlns="http://www.w3.org/2000/svg" xmlns:xlink="http://www.w3.org/1999/xlink" overflow="hidden"><defs><clipPath id="clip0"><rect x="37" y="63" width="368" height="259"/></clipPath></defs><g clip-path="url(#clip0)" transform="translate(-37 -63)"><path d="M0.5-2.34346e-07 0.500102 217.333-0.499898 217.333-0.5 2.34346e-07ZM4.0001 216 0.000104987 224-3.9999 216Z" transform="matrix(1 0 0 -1 133.5 320.5)"/><path d="M109.5 296 374.833 296 374.833 297 109.5 297ZM373.5 292.5 381.5 296.5 373.5 300.5Z"/><rect x="173.5" y="224.5" width="152" height="72" stroke="#000000" stroke-width="1.33333" stroke-linejoin="round" stroke-miterlimit="10" fill="none"/><rect x="173.5" y="131.5" width="48" height="93" stroke="#000000" stroke-width="1.33333" stroke-linejoin="round" stroke-miterlimit="10" fill="none"/><path d="M221.5 224.5 221.5 296.5" stroke="#000000" stroke-width="1.33333" stroke-linejoin="round" stroke-miterlimit="10" stroke-dasharray="1.33333 1.33333" fill="#BBE0E3" fill-rule="evenodd"/><text font-family="Cambria Math,Cambria Math_MSFontService,sans-serif" font-weight="400" font-size="21" transform="translate(112.664 85)">𝑓</text><path d="M146.771 69.2631C148.767 69.7895 150.3 70.9259 151.369 72.6725 152.439 74.4191 152.974 76.5263 152.974 78.9941 152.974 81.4687 152.441 83.5759 151.375 85.3156 150.308 87.0553 148.773 88.1884 146.771 88.7148L146.524 87.9252C148.104 87.3988 149.278 86.3598 150.047 84.808 150.816 83.2563 151.2 81.2841 151.2 78.8915 151.2 76.581 150.817 74.6618 150.052 73.134 149.286 71.6061 148.1 70.579 146.494 70.0527ZM133.007 69.2631 133.284 70.0527C131.684 70.579 130.5 71.6061 129.731 73.134 128.962 74.6618 128.577 76.581 128.577 78.8915 128.577 81.2841 128.962 83.2563 129.731 84.808 130.5 86.3598 131.674 87.3988 133.253 87.9252L133.007 88.7148C131.004 88.1884 129.469 87.0553 128.403 85.3156 127.336 83.5759 126.803 81.4687 126.803 78.9941 126.803 76.5263 127.338 74.4191 128.408 72.6725 129.478 70.9259 131.011 69.7895 133.007 69.2631Z" fill-rule="evenodd"/><text font-family="Cambria Math,Cambria Math_MSFontService,sans-serif" font-weight="400" font-size="21" transform="translate(133.811 85)">𝑣<tspan x="-18.8043" y="232">0</tspan><tspan x="255.398" y="218">𝑣</tspan><tspan x="27.0133" y="230">𝑣</tspan><tspan font-size="15" x="37.4333" y="234">c</tspan><tspan x="61.3566" y="230">𝑣</tspan><tspan font-size="15" x="71.7766" y="234">c</tspan><tspan x="85.2366" y="230">+</tspan><tspan x="105.977" y="230">∆</tspan><tspan font-size="15" x="118.15" y="234">1</tspan><tspan x="160.628" y="230">𝑣</tspan><tspan font-size="15" x="171.048" y="234">c</tspan><tspan x="184.508" y="230">+</tspan><tspan x="205.248" y="230">∆</tspan><tspan font-size="15" x="217.915" y="234">2</tspan></text><path d="M0 0 40 0.000104987" stroke="#000000" stroke-width="1.33333" stroke-linejoin="round" stroke-miterlimit="10" stroke-dasharray="1.33333 1.33333" fill="#BBE0E3" fill-rule="evenodd" transform="matrix(-1 -8.74228e-08 -8.74228e-08 1 173.5 224.5)"/><path d="M0 0 40 0.000104987" stroke="#000000" stroke-width="1.33333" stroke-linejoin="round" stroke-miterlimit="10" stroke-dasharray="1.33333 1.33333" fill="#BBE0E3" fill-rule="evenodd" transform="matrix(-1 -8.74228e-08 -8.74228e-08 1 173.5 131.5)"/><text font-family="Cambria Math,Cambria Math_MSFontService,sans-serif" font-weight="400" font-size="21" transform="translate(95.8632 213)">𝑛<tspan font-size="15" x="12.1667" y="4">02</tspan><tspan x="4.24667" y="30">∆</tspan><tspan font-size="15" x="16.9133" y="34">2</tspan></text><path d="M95.7232 221.717 103.473 221.717 111.223 221.717 118.973 221.717 126.723 221.717 126.723 222.717 118.973 222.717 111.223 222.717 103.473 222.717 95.7232 222.717Z" fill-rule="evenodd"/><text font-family="Cambria Math,Cambria Math_MSFontService,sans-serif" font-weight="400" font-size="21" transform="translate(40.6585 121)">𝑛<tspan font-size="15" x="12.1667" y="5">01</tspan><tspan x="4.49333" y="31">∆</tspan><tspan font-size="15" x="16.6667" y="35">1</tspan></text><path d="M40.2051 130.367 55.7051 130.367 71.2051 130.367 71.2051 131.367 55.7051 131.367 40.2051 131.367Z" fill-rule="evenodd"/><text font-family="Cambria Math,Cambria Math_MSFontService,sans-serif" font-weight="400" font-size="21" transform="translate(76.4518 137)">+<tspan x="20.74" y="-16">𝑛</tspan><tspan font-size="15" x="32.9067" y="-11">02</tspan><tspan x="24.9867" y="15">∆</tspan><tspan font-size="15" x="37.6533" y="19">2</tspan></text><path d="M97.2051 130.367 112.705 130.367 128.205 130.367 128.205 131.367 112.705 131.367 97.2051 131.367Z" fill-rule="evenodd"/><text font-family="Cambria Math,Cambria Math_MSFontService,sans-serif" font-weight="400" font-size="21" transform="translate(221.816 113)">𝜙<tspan x="20.8867" y="0">=</tspan><tspan x="42.8133" y="0">0</tspan></text></g></svg>